# xmcd
#
# Track frame offsets: 
#        182
#        17600
#        41027
#        57862
#        85707
#        109185
#        139702
#        161335
#        196582
#        223502
#        242935
#        263910
#        282822
#        313112
#        331637
#
# Disc length: 4716 seconds
#
# Revision: 1
# Processed by: cddbd v1.5.2PL0 Copyright (c) Steve Scherf et al.
# Submitted via: ExactAudioCopy v0.99pb1
#
DISCID=c7126a0f
DTITLE=Various Artist - Mississippi Blues - New Orleans to Chicago (4
DTITLE=)
DYEAR=1996
DGENRE=Blues
TTITLE0=Johnny Littlejohn - The Sun Is Shining 
TTITLE1=Johnny Littlejohn - What In The World
TTITLE2=Brewer Phillips - Woke Up This Morning
TTITLE3=Brewer Phillips - Poor Boy Blues
TTITLE4=Mojo Buford - Picking Rags
TTITLE5=Lefty Dizz - I Feel Like Jumping
TTITLE6=Walter Horton - Easy
TTITLE7=Walter Horton - What's On Your Worried Mind
TTITLE8=Carey Bell - Brought Up The Hard Way
TTITLE9=Carey Bell - I Shoulda Did What Mama Told Me
TTITLE10=Lucky Lopez Evans - Work, Work, work
TTITLE11=Lucky Lopez Evans - Young Girl
TTITLE12=Mojo Buford - Mo's Stroll
TTITLE13=Mojo Buford - I'm A Bluesman
TTITLE14=Brewer Phillips - Cleo
EXTD=
EXTT0=
EXTT1=
EXTT2=
EXTT3=
EXTT4=
EXTT5=
EXTT6=
EXTT7=
EXTT8=
EXTT9=
EXTT10=
EXTT11=
EXTT12=
EXTT13=
EXTT14=
PLAYORDER=
